<svg width="20" height="20" viewBox="0 0 20 20" fill="none" xmlns="http://www.w3.org/2000/svg">
<path d="M0.219977 0.21995C0.0929589 0.346939 0.0157307 0.515293 0.00233427 0.694402C-0.0110622 0.873511 0.0402627 1.05148 0.146977 1.19595L0.219977 1.27995L4.25398 5.31495C2.28701 6.69358 0.882863 8.735 0.298977 11.0649C0.253956 11.2568 0.286215 11.4586 0.388782 11.6268C0.491349 11.795 0.655986 11.9161 0.847113 11.9639C1.03824 12.0117 1.24051 11.9824 1.4102 11.8823C1.57989 11.7822 1.70338 11.6194 1.75398 11.429C2.27288 9.36095 3.55088 7.5639 5.33398 6.39495L7.14398 8.20495C6.42097 8.96044 6.02257 9.96903 6.0341 11.0147C6.04563 12.0603 6.46619 13.0599 7.20568 13.7992C7.94517 14.5386 8.9448 14.959 9.99045 14.9703C11.0361 14.9817 12.0446 14.5831 12.8 13.86L18.719 19.78C18.8528 19.9141 19.0325 19.9927 19.2219 19.9998C19.4112 20.0069 19.5963 19.9421 19.7398 19.8183C19.8833 19.6946 19.9747 19.5211 19.9955 19.3327C20.0163 19.1443 19.965 18.9551 19.852 18.8029L19.779 18.719L13.666 12.6049L13.667 12.603L6.71698 5.65695L6.71898 5.65495L5.58598 4.52495L1.27998 0.21995C1.13935 0.0795 0.948727 0.000610352 0.749977 0.000610352C0.551226 0.000610352 0.360602 0.0795 0.219977 0.21995ZM9.99998 3.49995C8.99998 3.49995 8.02998 3.64795 7.11098 3.92495L8.34798 5.16095C10.4875 4.73731 12.7081 5.15203 14.5505 6.31938C16.3929 7.48672 17.7162 9.31742 18.247 11.433C18.2988 11.6219 18.4225 11.783 18.5916 11.882C18.7607 11.9809 18.9617 12.0097 19.1518 11.9623C19.3419 11.9149 19.5059 11.795 19.6087 11.6282C19.7115 11.4614 19.745 11.2611 19.702 11.07C19.1597 8.90741 17.9105 6.98801 16.1528 5.61652C14.395 4.24504 12.2295 3.50008 9.99998 3.49995ZM10.195 7.00995L13.996 10.81C13.9468 9.81785 13.5305 8.87947 12.8281 8.17717C12.1256 7.47488 11.1871 7.05886 10.195 7.00995Z" fill="#3B3D4F"/>
</svg>
